<svg version="1.1" xmlns="http://www.w3.org/2000/svg" xmlns:xlink="http://www.w3.org/1999/xlink" width="880" height="912"><defs></defs><g><g transform="translate(-10,-30) scale(1,1)"><rect fill="#C0C0C0" stroke="none" x="51" y="47" width="133" height="39" opacity="0.2"></rect></g><g transform="translate(-10,-30) scale(1,1)"><rect fill="#ffffff" stroke="none" x="44" y="40" width="133" height="39"></rect></g><g transform="translate(-10,-30) scale(1,1)"><path fill="none" stroke="#000000" d="M 44 40 L 177 40 L 177 79 L 44 79 L 44 40 Z Z" stroke-miterlimit="10"></path></g><g transform="translate(-10,-30) scale(1,1)"><g><path fill="none" stroke="none"></path><text fill="#000000" stroke="none" font-family="Arial" font-size="13px" font-style="normal" font-weight="bold" text-decoration="none" x="56" y="59.5">_select_nodes_ctd</text></g></g><g transform="translate(-10,-30) scale(1,1)"><path fill="none" stroke="#000000" d="M 111.5 80 L 111.5 876" stroke-miterlimit="10" stroke-dasharray="3"></path></g><g transform="translate(-10,-30) scale(1,1)"><rect fill="#C0C0C0" stroke="none" x="191" y="47" width="115" height="39" opacity="0.2"></rect></g><g transform="translate(-10,-30) scale(1,1)"><rect fill="#ffffff" stroke="none" x="184" y="40" width="115" height="39"></rect></g><g transform="translate(-10,-30) scale(1,1)"><path fill="none" stroke="#000000" d="M 184 40 L 299 40 L 299 79 L 184 79 L 184 40 Z Z" stroke-miterlimit="10"></path></g><g transform="translate(-10,-30) scale(1,1)"><g><path fill="none" stroke="none"></path><text fill="#000000" stroke="none" font-family="Arial" font-size="13px" font-style="normal" font-weight="bold" text-decoration="none" x="195.5" y="59.5">_get_res_usage</text></g></g><g transform="translate(-10,-30) scale(1,1)"><path fill="none" stroke="#000000" d="M 242.5 80 L 242.5 880" stroke-miterlimit="10" stroke-dasharray="3"></path></g><g transform="translate(-10,-30) scale(1,1)"><rect fill="#C0C0C0" stroke="none" x="323" y="47" width="164" height="39" opacity="0.2"></rect></g><g transform="translate(-10,-30) scale(1,1)"><rect fill="#ffffff" stroke="none" x="316" y="40" width="164" height="39"></rect></g><g transform="translate(-10,-30) scale(1,1)"><path fill="none" stroke="#000000" d="M 316 40 L 480 40 L 480 79 L 316 79 L 316 40 Z Z" stroke-miterlimit="10"></path></g><g transform="translate(-10,-30) scale(1,1)"><g><path fill="none" stroke="none"></path><text fill="#000000" stroke="none" font-family="Arial" font-size="13px" font-style="normal" font-weight="bold" text-decoration="none" x="331.5" y="59.5">_can_job_run_on_node</text></g></g><g transform="translate(-10,-30) scale(1,1)"><path fill="none" stroke="#000000" d="M 399.5 80 L 399.5 884" stroke-miterlimit="10" stroke-dasharray="3"></path></g><g transform="translate(-10,-30) scale(1,1)"><rect fill="#C0C0C0" stroke="none" x="495" y="47" width="131" height="39" opacity="0.2"></rect></g><g transform="translate(-10,-30) scale(1,1)"><rect fill="#ffffff" stroke="none" x="488" y="40" width="131" height="39"></rect></g><g transform="translate(-10,-30) scale(1,1)"><path fill="none" stroke="#000000" d="M 488 40 L 619 40 L 619 79 L 488 79 L 488 40 Z Z" stroke-miterlimit="10"></path></g><g transform="translate(-10,-30) scale(1,1)"><g><path fill="none" stroke="none"></path><text fill="#000000" stroke="none" font-family="Arial" font-size="13px" font-style="normal" font-weight="bold" text-decoration="none" x="500.5" y="59.5">_allocat_cores[sc]</text></g></g><g transform="translate(-10,-30) scale(1,1)"><path fill="none" stroke="#000000" d="M 554.5 80 L 554.5 880" stroke-miterlimit="10" stroke-dasharray="3"></path></g><g transform="translate(-10,-30) scale(1,1)"><rect fill="#C0C0C0" stroke="none" x="639" y="47" width="116" height="39" opacity="0.2"></rect></g><g transform="translate(-10,-30) scale(1,1)"><rect fill="#ffffff" stroke="none" x="632" y="40" width="116" height="39"></rect></g><g transform="translate(-10,-30) scale(1,1)"><path fill="none" stroke="#000000" d="M 632 40 L 748 40 L 748 79 L 632 79 L 632 40 Z Z" stroke-miterlimit="10"></path></g><g transform="translate(-10,-30) scale(1,1)"><g><path fill="none" stroke="none"></path><text fill="#000000" stroke="none" font-family="Arial" font-size="13px" font-style="normal" font-weight="bold" text-decoration="none" x="644.5" y="59.5">_choose_nodes</text></g></g><g transform="translate(-10,-30) scale(1,1)"><path fill="none" stroke="#000000" d="M 691.5 80 L 691.5 880" stroke-miterlimit="10" stroke-dasharray="3"></path></g><g transform="translate(-10,-30) scale(1,1)"><rect fill="#C0C0C0" stroke="none" x="791" y="47" width="96" height="39" opacity="0.2"></rect></g><g transform="translate(-10,-30) scale(1,1)"><rect fill="#ffffff" stroke="none" x="784" y="40" width="96" height="39"></rect></g><g transform="translate(-10,-30) scale(1,1)"><path fill="none" stroke="#000000" d="M 784 40 L 880 40 L 880 79 L 784 79 L 784 40 Z Z" stroke-miterlimit="10"></path></g><g transform="translate(-10,-30) scale(1,1)"><g><path fill="none" stroke="none"></path><text fill="#000000" stroke="none" font-family="Arial" font-size="13px" font-style="normal" font-weight="bold" text-decoration="none" x="795.5" y="59.5">_eval_nodes</text></g></g><g transform="translate(-10,-30) scale(1,1)"><path fill="none" stroke="#000000" d="M 833.5 80 L 833.5 876" stroke-miterlimit="10" stroke-dasharray="3"></path></g><g transform="translate(-10,-30) scale(1,1)"><path fill="#ffffff" stroke="none" d="M 184 144 L 284 144 L 294 154 L 294 242 L 184 242 L 184 144"></path></g><g transform="translate(-10,-30) scale(1,1)"><path fill="none" stroke="#000000" d="M 184 144 L 284 144 L 294 154 L 294 242 L 184 242 L 184 144 L 184 144" stroke-miterlimit="10"></path></g><g transform="translate(-10,-30) scale(1,1)"><path fill="none" stroke="#000000" d="M 284 144 L 284 154 L 294 154 L 284 144" stroke-miterlimit="10"></path></g><g transform="translate(-10,-30) scale(1,1)"><g><path fill="none" stroke="none"></path><text fill="#000000" stroke="none" font-family="Arial" font-size="13px" font-style="normal" font-weight="normal" text-decoration="none" x="189" y="162">Calculate:</text><text fill="#000000" stroke="none" font-family="Arial" font-size="13px" font-style="normal" font-weight="normal" text-decoration="none" x="189" y="175">cpu_cnt[node_i]</text><text fill="#000000" stroke="none" font-family="Arial" font-size="13px" font-style="normal" font-weight="normal" text-decoration="none" x="189" y="188">by every</text><text fill="#000000" stroke="none" font-family="Arial" font-size="13px" font-style="normal" font-weight="normal" text-decoration="none" x="189" y="201">"node_i" cpu</text><text fill="#000000" stroke="none" font-family="Arial" font-size="13px" font-style="normal" font-weight="normal" text-decoration="none" x="189" y="214">count is</text><text fill="#000000" stroke="none" font-family="Arial" font-size="13px" font-style="normal" font-weight="normal" text-decoration="none" x="189" y="227">calculated</text></g></g><g transform="translate(-10,-30) scale(1,1)"><path fill="#ffffff" stroke="none" d="M 336 288 L 464 288 L 474 298 L 474 326 L 336 326 L 336 288"></path></g><g transform="translate(-10,-30) scale(1,1)"><path fill="none" stroke="#000000" d="M 336 288 L 464 288 L 474 298 L 474 326 L 336 326 L 336 288 L 336 288" stroke-miterlimit="10"></path></g><g transform="translate(-10,-30) scale(1,1)"><path fill="none" stroke="#000000" d="M 464 288 L 464 298 L 474 298 L 464 288" stroke-miterlimit="10"></path></g><g transform="translate(-10,-30) scale(1,1)"><g><path fill="none" stroke="none"></path><text fill="#000000" stroke="none" font-family="Arial" font-size="13px" font-style="normal" font-weight="normal" text-decoration="none" x="341" y="306">"node_i" cpu count is</text><text fill="#000000" stroke="none" font-family="Arial" font-size="13px" font-style="normal" font-weight="normal" text-decoration="none" x="341" y="319">calculated</text></g></g><g transform="translate(-10,-30) scale(1,1)"><path fill="#ffffff" stroke="none" d="M 132 444 L 240 444 L 250 454 L 250 480 L 132 480 L 132 444"></path></g><g transform="translate(-10,-30) scale(1,1)"><path fill="none" stroke="#000000" d="M 132 444 L 240 444 L 250 454 L 250 480 L 132 480 L 132 444 L 132 444" stroke-miterlimit="10"></path></g><g transform="translate(-10,-30) scale(1,1)"><path fill="none" stroke="#000000" d="M 240 444 L 240 454 L 250 454 L 240 444" stroke-miterlimit="10"></path></g><g transform="translate(-10,-30) scale(1,1)"><g><path fill="none" stroke="none"></path><text fill="#000000" stroke="none" font-family="Arial" font-size="13px" font-style="normal" font-weight="normal" text-decoration="none" x="137" y="462">cpu_cnt[node_i]=</text><text fill="#000000" stroke="none" font-family="Arial" font-size="13px" font-style="normal" font-weight="normal" text-decoration="none" x="137" y="475">cpus</text></g></g><g transform="translate(-10,-30) scale(1,1)"><path fill="#ffffff" stroke="none" d="M 20 736 L 239 736 L 249 746 L 249 834 L 20 834 L 20 736"></path></g><g transform="translate(-10,-30) scale(1,1)"><path fill="none" stroke="#000000" d="M 20 736 L 239 736 L 249 746 L 249 834 L 20 834 L 20 736 L 20 736" stroke-miterlimit="10"></path></g><g transform="translate(-10,-30) scale(1,1)"><path fill="none" stroke="#000000" d="M 239 736 L 239 746 L 249 746 L 239 736" stroke-miterlimit="10"></path></g><g transform="translate(-10,-30) scale(1,1)"><g><path fill="none" stroke="none"></path><text fill="#000000" stroke="none" font-family="Arial" font-size="13px" font-style="normal" font-weight="normal" text-decoration="none" x="25" y="754">cpus=NULL:</text></g></g><g transform="translate(-10,-30) scale(1,1)"><g><path fill="none" stroke="none"></path><text fill="#000000" stroke="none" font-family="Arial" font-size="13px" font-style="normal" font-weight="normal" text-decoration="none" x="25" y="769">if( rc = SLURM_SUCCESS)</text></g></g><g transform="translate(-10,-30) scale(1,1)"><g><path fill="none" stroke="none"></path><text fill="#000000" stroke="none" font-family="Arial" font-size="13px" font-style="normal" font-weight="normal" text-decoration="none" x="25" y="784">memcpy(cpus,cpu_cnt,cr_node_cnt)</text></g></g><g transform="translate(-10,-30) scale(1,1)"><g><path fill="none" stroke="none"></path><text fill="#000000" stroke="none" font-family="Arial" font-size="13px" font-style="normal" font-weight="normal" text-decoration="none" x="25" y="799">return *cpus;</text></g></g><g transform="translate(-10,-30) scale(1,1)"><g><path fill="none" stroke="none"></path><text fill="#000000" stroke="none" font-family="Arial" font-size="13px" font-style="normal" font-weight="normal" text-decoration="none" x="25" y="814">else</text></g></g><g transform="translate(-10,-30) scale(1,1)"><g><path fill="none" stroke="none"></path><text fill="#000000" stroke="none" font-family="Arial" font-size="13px" font-style="normal" font-weight="normal" text-decoration="none" x="25" y="829">return cpus=NULL;</text></g></g><g transform="translate(-10,-30) scale(1,1)"><path fill="#ffffff" stroke="none" d="M 28 516 L 193 516 L 203 526 L 203 621 L 28 621 L 28 516"></path></g><g transform="translate(-10,-30) scale(1,1)"><path fill="none" stroke="#000000" d="M 28 516 L 193 516 L 203 526 L 203 621 L 28 621 L 28 516 L 28 516" stroke-miterlimit="10"></path></g><g transform="translate(-10,-30) scale(1,1)"><path fill="none" stroke="#000000" d="M 193 516 L 193 526 L 203 526 L 193 516" stroke-miterlimit="10"></path></g><g transform="translate(-10,-30) scale(1,1)"><g><path fill="none" stroke="none"></path><text fill="#000000" stroke="none" font-family="Arial" font-size="13px" font-style="normal" font-weight="normal" text-decoration="none" x="33" y="534">1)Clear all nodes that do not</text><text fill="#000000" stroke="none" font-family="Arial" font-size="13px" font-style="normal" font-weight="normal" text-decoration="none" x="33" y="547">have sufficient</text><text fill="#000000" stroke="none" font-family="Arial" font-size="13px" font-style="normal" font-weight="normal" text-decoration="none" x="33" y="560">resources(cpu_cnt[n]=0)</text></g></g><g transform="translate(-10,-30) scale(1,1)"><g><path fill="none" stroke="none"></path><text fill="#000000" stroke="none" font-family="Arial" font-size="13px" font-style="normal" font-weight="normal" text-decoration="none" x="33" y="575">2)if(bit_test(node_map,n) &amp;</text><text fill="#000000" stroke="none" font-family="Arial" font-size="13px" font-style="normal" font-weight="normal" text-decoration="none" x="33" y="588">cpu_cnt[n]=0 &amp;</text><text fill="#000000" stroke="none" font-family="Arial" font-size="13px" font-style="normal" font-weight="normal" text-decoration="none" x="33" y="601">!bit_test(req_map,n))</text></g></g><g transform="translate(-10,-30) scale(1,1)"><g><path fill="none" stroke="none"></path><text fill="#000000" stroke="none" font-family="Arial" font-size="13px" font-style="normal" font-weight="normal" text-decoration="none" x="33" y="616">bit_clear(node_map,n);</text></g></g><g transform="translate(-10,-30) scale(1,1)"><path fill="#ffffff" stroke="none" d="M 36 896 L 416 896 L 426 906 L 426 931 L 36 931 L 36 896"></path></g><g transform="translate(-10,-30) scale(1,1)"><path fill="none" stroke="#000000" d="M 36 896 L 416 896 L 426 906 L 426 931 L 36 931 L 36 896 L 36 896" stroke-miterlimit="10"></path></g><g transform="translate(-10,-30) scale(1,1)"><path fill="none" stroke="#000000" d="M 416 896 L 416 906 L 426 906 L 416 896" stroke-miterlimit="10"></path></g><g transform="translate(-10,-30) scale(1,1)"><g><path fill="none" stroke="none"></path><text fill="#000000" stroke="none" font-family="Arial" font-size="13px" font-style="normal" font-weight="normal" text-decoration="none" x="41" y="914">param_NC - parameter not changed at the first time</text></g></g><g transform="translate(-10,-30) scale(1,1)"><path fill="none" stroke="#000000" d="M 691 740 L 111 740" stroke-miterlimit="10" stroke-dasharray="3"></path></g><g transform="translate(-10,-30) scale(1,1)"><path fill="none" stroke="#000000" d="M 121.16267485762415 735.790482243984 L 111 740 L 121.16267485762415 744.209517756016" stroke-miterlimit="10"></path></g><g transform="translate(-10,-30) scale(1,1)"><g><path fill="none" stroke="none"></path><text fill="#000000" stroke="none" font-family="Arial" font-size="13px" font-style="normal" font-weight="normal" text-decoration="none" x="284" y="757">35 : rc = SLURM_SUCCESS or ERROR</text></g></g><g transform="translate(-10,-30) scale(1,1)"><path fill="none" stroke="#000000" d="M 399 368 L 547 368" stroke-miterlimit="10"></path></g><g transform="translate(-10,-30) scale(1,1)"><path fill="#000000" stroke="none" d="M 536.8373251423759 372.209517756016 L 547 368 L 536.8373251423758 363.790482243984"></path></g><g transform="translate(-10,-30) scale(1,1)"><path fill="none" stroke="#000000" d="M 536.8373251423759 372.209517756016 L 547 368 L 536.8373251423758 363.790482243984 L 536.8373251423759 372.209517756016" stroke-miterlimit="10"></path></g><g transform="translate(-10,-30) scale(1,1)"><g><path fill="none" stroke="none"></path><text fill="#000000" stroke="none" font-family="Arial" font-size="13px" font-style="normal" font-weight="normal" text-decoration="none" x="316" y="361">31 : _allocate_cores(core_map,part_core_map,node_i)</text></g></g><g transform="translate(-10,-30) scale(1,1)"><rect fill="#ffffff" stroke="none" x="547" y="368" width="13" height="28"></rect></g><g transform="translate(-10,-30) scale(1,1)"><path fill="none" stroke="#000000" d="M 547 368 L 560 368 L 560 396 L 547 396 L 547 368 Z Z" stroke-miterlimit="10"></path></g><g transform="translate(-10,-30) scale(1,1)"><path fill="none" stroke="#000000" d="M 399 408 L 429 408 L 429 428 L 405 428" stroke-miterlimit="10"></path></g><g transform="translate(-10,-30) scale(1,1)"><path fill="#000000" stroke="none" d="M 415.16267485762415 423.790482243984 L 405 428 L 415.16267485762415 432.209517756016"></path></g><g transform="translate(-10,-30) scale(1,1)"><path fill="none" stroke="#000000" d="M 415.16267485762415 423.790482243984 L 405 428 L 415.16267485762415 432.209517756016 L 415.16267485762415 423.790482243984" stroke-miterlimit="10"></path></g><g transform="translate(-10,-30) scale(1,1)"><g><path fill="none" stroke="none"></path><text fill="#000000" stroke="none" font-family="Arial" font-size="13px" font-style="normal" font-weight="normal" text-decoration="none" x="366" y="424">32 : gres_plugin_job_test</text></g></g><g transform="translate(-10,-30) scale(1,1)"><rect fill="#ffffff" stroke="none" x="392" y="428" width="13" height="28"></rect></g><g transform="translate(-10,-30) scale(1,1)"><path fill="none" stroke="#000000" d="M 392 428 L 405 428 L 405 456 L 392 456 L 392 428 Z Z" stroke-miterlimit="10"></path></g><g transform="translate(-10,-30) scale(1,1)"><path fill="none" stroke="#000000" d="M 399 464 L 242 464" stroke-miterlimit="10" stroke-dasharray="3"></path></g><g transform="translate(-10,-30) scale(1,1)"><path fill="none" stroke="#000000" d="M 252.16267485762415 459.790482243984 L 242 464 L 252.16267485762415 468.209517756016" stroke-miterlimit="10"></path></g><g transform="translate(-10,-30) scale(1,1)"><g><path fill="none" stroke="none"></path><text fill="#000000" stroke="none" font-family="Arial" font-size="13px" font-style="normal" font-weight="normal" text-decoration="none" x="272" y="481">33 : return cpus;</text></g></g><g transform="translate(-10,-30) scale(1,1)"><path fill="none" stroke="#000000" d="M 691 676 L 826 676" stroke-miterlimit="10"></path></g><g transform="translate(-10,-30) scale(1,1)"><path fill="#000000" stroke="none" d="M 815.8373251423759 680.209517756016 L 826 676 L 815.8373251423758 671.790482243984"></path></g><g transform="translate(-10,-30) scale(1,1)"><path fill="none" stroke="#000000" d="M 815.8373251423759 680.209517756016 L 826 676 L 815.8373251423758 671.790482243984 L 815.8373251423759 680.209517756016" stroke-miterlimit="10"></path></g><g transform="translate(-10,-30) scale(1,1)"><g><path fill="none" stroke="none"></path><text fill="#000000" stroke="none" font-family="Arial" font-size="13px" font-style="normal" font-weight="normal" text-decoration="none" x="653" y="673">34 : _eval_nodes(job_ptr,node_map)</text></g></g><g transform="translate(-10,-30) scale(1,1)"><rect fill="#ffffff" stroke="none" x="826" y="676" width="13" height="28"></rect></g><g transform="translate(-10,-30) scale(1,1)"><path fill="none" stroke="#000000" d="M 826 676 L 839 676 L 839 704 L 826 704 L 826 676 Z Z" stroke-miterlimit="10"></path></g><g transform="translate(-10,-30) scale(1,1)"><path fill="none" stroke="#000000" d="M 111 120 L 235 120" stroke-miterlimit="10"></path></g><g transform="translate(-10,-30) scale(1,1)"><path fill="#000000" stroke="none" d="M 224.83732514237585 124.20951775601598 L 235 120 L 224.83732514237585 115.79048224398402"></path></g><g transform="translate(-10,-30) scale(1,1)"><path fill="none" stroke="#000000" d="M 224.83732514237585 124.20951775601598 L 235 120 L 224.83732514237585 115.79048224398402 L 224.83732514237585 124.20951775601598" stroke-miterlimit="10"></path></g><g transform="translate(-10,-30) scale(1,1)"><g><path fill="none" stroke="none"></path><text fill="#000000" stroke="none" font-family="Arial" font-size="13px" font-style="normal" font-weight="normal" text-decoration="none" x="83" y="117">1 : _get_res_usage(param_NC)</text></g></g><g transform="translate(-10,-30) scale(1,1)"><rect fill="#ffffff" stroke="none" x="235" y="120" width="13" height="28"></rect></g><g transform="translate(-10,-30) scale(1,1)"><path fill="none" stroke="#000000" d="M 235 120 L 248 120 L 248 148 L 235 148 L 235 120 Z Z" stroke-miterlimit="10"></path></g><g transform="translate(-10,-30) scale(1,1)"><path fill="none" stroke="#000000" d="M 242 265 L 392 265" stroke-miterlimit="10"></path></g><g transform="translate(-10,-30) scale(1,1)"><path fill="#000000" stroke="none" d="M 381.83732514237585 269.209517756016 L 392 265 L 381.83732514237585 260.790482243984"></path></g><g transform="translate(-10,-30) scale(1,1)"><path fill="none" stroke="#000000" d="M 381.83732514237585 269.209517756016 L 392 265 L 381.83732514237585 260.790482243984 L 381.83732514237585 269.209517756016" stroke-miterlimit="10"></path></g><g transform="translate(-10,-30) scale(1,1)"><g><path fill="none" stroke="none"></path><text fill="#000000" stroke="none" font-family="Arial" font-size="13px" font-style="normal" font-weight="normal" text-decoration="none" x="218" y="262">2 : _can_job_run_on_node(node_i)</text></g></g><g transform="translate(-10,-30) scale(1,1)"><rect fill="#ffffff" stroke="none" x="392" y="265" width="13" height="28"></rect></g><g transform="translate(-10,-30) scale(1,1)"><path fill="none" stroke="#000000" d="M 392 265 L 405 265 L 405 293 L 392 293 L 392 265 Z Z" stroke-miterlimit="10"></path></g><g transform="translate(-10,-30) scale(1,1)"><path fill="none" stroke="#000000" d="M 547 392 L 399 392" stroke-miterlimit="10" stroke-dasharray="3"></path></g><g transform="translate(-10,-30) scale(1,1)"><path fill="none" stroke="#000000" d="M 409.16267485762415 387.790482243984 L 399 392 L 409.16267485762415 396.209517756016" stroke-miterlimit="10"></path></g><g transform="translate(-10,-30) scale(1,1)"><g><path fill="none" stroke="none"></path><text fill="#000000" stroke="none" font-family="Arial" font-size="13px" font-style="normal" font-weight="normal" text-decoration="none" x="433" y="409">4 : cpu_count</text></g></g><g transform="translate(-10,-30) scale(1,1)"><path fill="none" stroke="#000000" d="M 111 632 L 684 632" stroke-miterlimit="10"></path></g><g transform="translate(-10,-30) scale(1,1)"><path fill="#000000" stroke="none" d="M 673.8373251423759 636.209517756016 L 684 632 L 673.8373251423758 627.790482243984"></path></g><g transform="translate(-10,-30) scale(1,1)"><path fill="none" stroke="#000000" d="M 673.8373251423759 636.209517756016 L 684 632 L 673.8373251423758 627.790482243984 L 673.8373251423759 636.209517756016" stroke-miterlimit="10"></path></g><g transform="translate(-10,-30) scale(1,1)"><g><path fill="none" stroke="none"></path><text fill="#000000" stroke="none" font-family="Arial" font-size="13px" font-style="normal" font-weight="normal" text-decoration="none" x="281" y="629">7 : _choose_nodes(node_map,*cpu_cnt)</text></g></g><g transform="translate(-10,-30) scale(1,1)"><rect fill="#ffffff" stroke="none" x="684" y="632" width="13" height="28"></rect></g><g transform="translate(-10,-30) scale(1,1)"><path fill="none" stroke="#000000" d="M 684 632 L 697 632 L 697 660 L 684 660 L 684 632 Z Z" stroke-miterlimit="10"></path></g><g transform="translate(-10,-30) scale(1,1)"><path fill="none" stroke="#000000" d="M 833 712 L 691 712" stroke-miterlimit="10" stroke-dasharray="3"></path></g><g transform="translate(-10,-30) scale(1,1)"><path fill="none" stroke="#000000" d="M 701.1626748576241 707.790482243984 L 691 712 L 701.1626748576241 716.209517756016" stroke-miterlimit="10"></path></g><g transform="translate(-10,-30) scale(1,1)"><g><path fill="none" stroke="none"></path><text fill="#000000" stroke="none" font-family="Arial" font-size="13px" font-style="normal" font-weight="normal" text-decoration="none" x="648" y="729">9 : rc = SLURM_SUCCESS or ERROR</text></g></g></g></svg>