<svg version="1.1" xmlns="http://www.w3.org/2000/svg" xmlns:xlink="http://www.w3.org/1999/xlink" width="791" height="1019"><defs></defs><g><g transform="translate(-30,-30) scale(1,1)"><rect fill="#C0C0C0" stroke="none" x="183" y="47" width="133" height="39" opacity="0.2"></rect></g><g transform="translate(-30,-30) scale(1,1)"><rect fill="#ffffff" stroke="none" x="176" y="40" width="133" height="39"></rect></g><g transform="translate(-30,-30) scale(1,1)"><path fill="none" stroke="#000000" d="M 176 40 L 309 40 L 309 79 L 176 79 L 176 40 Z Z" stroke-miterlimit="10"></path></g><g transform="translate(-30,-30) scale(1,1)"><g><path fill="none" stroke="none"></path><text fill="#000000" stroke="none" font-family="Arial" font-size="13px" font-style="normal" font-weight="bold" text-decoration="none" x="191.5" y="59.5">select_p_job_test</text></g></g><g transform="translate(-30,-30) scale(1,1)"><path fill="none" stroke="#000000" d="M 243.5 80 L 243.5 1039" stroke-miterlimit="10" stroke-dasharray="3"></path></g><g transform="translate(-30,-30) scale(1,1)"><rect fill="#C0C0C0" stroke="none" x="351" y="47" width="80" height="39" opacity="0.2"></rect></g><g transform="translate(-30,-30) scale(1,1)"><rect fill="#ffffff" stroke="none" x="344" y="40" width="80" height="39"></rect></g><g transform="translate(-30,-30) scale(1,1)"><path fill="none" stroke="#000000" d="M 344 40 L 424 40 L 424 79 L 344 79 L 344 40 Z Z" stroke-miterlimit="10"></path></g><g transform="translate(-30,-30) scale(1,1)"><g><path fill="none" stroke="none"></path><text fill="#000000" stroke="none" font-family="Arial" font-size="13px" font-style="normal" font-weight="bold" text-decoration="none" x="360" y="59.5">run_now</text></g></g><g transform="translate(-30,-30) scale(1,1)"><path fill="none" stroke="#000000" d="M 385.5 80 L 385.5 1032" stroke-miterlimit="10" stroke-dasharray="3"></path></g><g transform="translate(-30,-30) scale(1,1)"><rect fill="#C0C0C0" stroke="none" x="531" y="47" width="87" height="39" opacity="0.2"></rect></g><g transform="translate(-30,-30) scale(1,1)"><rect fill="#ffffff" stroke="none" x="524" y="40" width="87" height="39"></rect></g><g transform="translate(-30,-30) scale(1,1)"><path fill="none" stroke="#000000" d="M 524 40 L 611 40 L 611 79 L 524 79 L 524 40 Z Z" stroke-miterlimit="10"></path></g><g transform="translate(-30,-30) scale(1,1)"><g><path fill="none" stroke="none"></path><text fill="#000000" stroke="none" font-family="Arial" font-size="13px" font-style="normal" font-weight="bold" text-decoration="none" x="535.5" y="59.5">cr_job_test</text></g></g><g transform="translate(-30,-30) scale(1,1)"><path fill="none" stroke="#000000" d="M 568.5 80 L 568.5 1032" stroke-miterlimit="10" stroke-dasharray="3"></path></g><g transform="translate(-30,-30) scale(1,1)"><rect fill="#C0C0C0" stroke="none" x="711" y="47" width="107" height="39" opacity="0.2"></rect></g><g transform="translate(-30,-30) scale(1,1)"><rect fill="#ffffff" stroke="none" x="704" y="40" width="107" height="39"></rect></g><g transform="translate(-30,-30) scale(1,1)"><path fill="none" stroke="#000000" d="M 704 40 L 811 40 L 811 79 L 704 79 L 704 40 Z Z" stroke-miterlimit="10"></path></g><g transform="translate(-30,-30) scale(1,1)"><g><path fill="none" stroke="none"></path><text fill="#000000" stroke="none" font-family="Arial" font-size="13px" font-style="normal" font-weight="bold" text-decoration="none" x="715.5" y="59.5">_select_nodes</text></g></g><g transform="translate(-30,-30) scale(1,1)"><path fill="none" stroke="#000000" d="M 758.5 80 L 758.5 1032" stroke-miterlimit="10" stroke-dasharray="3"></path></g><g transform="translate(-30,-30) scale(1,1)"><rect fill="#C0C0C0" stroke="none" x="47" y="47" width="133" height="39" opacity="0.2"></rect></g><g transform="translate(-30,-30) scale(1,1)"><rect fill="#ffffff" stroke="none" x="40" y="40" width="133" height="39"></rect></g><g transform="translate(-30,-30) scale(1,1)"><path fill="none" stroke="#000000" d="M 40 40 L 173 40 L 173 79 L 40 79 L 40 40 Z Z" stroke-miterlimit="10"></path></g><g transform="translate(-30,-30) scale(1,1)"><g><path fill="none" stroke="none"></path><text fill="#000000" stroke="none" font-family="Arial" font-size="13px" font-style="normal" font-weight="bold" text-decoration="none" x="55.5" y="59.5">select_g_job_test</text></g></g><g transform="translate(-30,-30) scale(1,1)"><path fill="none" stroke="#000000" d="M 107.5 80 L 107.5 1039" stroke-miterlimit="10" stroke-dasharray="3"></path></g><g transform="translate(-30,-30) scale(1,1)"><path fill="#ffffff" stroke="none" d="M 120 212 L 358 212 L 368 222 L 368 291 L 120 291 L 120 212"></path></g><g transform="translate(-30,-30) scale(1,1)"><path fill="none" stroke="#000000" d="M 120 212 L 358 212 L 368 222 L 368 291 L 120 291 L 120 212 L 120 212" stroke-miterlimit="10"></path></g><g transform="translate(-30,-30) scale(1,1)"><path fill="none" stroke="#000000" d="M 358 212 L 358 222 L 368 222 L 358 212" stroke-miterlimit="10"></path></g><g transform="translate(-30,-30) scale(1,1)"><g><path fill="none" stroke="none"></path><text fill="#000000" stroke="none" font-family="Arial" font-size="13px" font-style="normal" font-weight="normal" text-decoration="none" x="125" y="230">if(slurm_get_use_spec_resources()==1)</text></g></g><g transform="translate(-30,-30) scale(1,1)"><g><path fill="none" stroke="none"></path><text fill="#000000" stroke="none" font-family="Arial" font-size="13px" font-style="normal" font-weight="normal" text-decoration="none" x="125" y="245">job_ptr-&gt;details-&gt;whole_node=1</text></g></g><g transform="translate(-30,-30) scale(1,1)"><g><path fill="none" stroke="none"></path><text fill="#000000" stroke="none" font-family="Arial" font-size="13px" font-style="normal" font-weight="normal" text-decoration="none" x="125" y="260">/*If Job requests special resources then</text><text fill="#000000" stroke="none" font-family="Arial" font-size="13px" font-style="normal" font-weight="normal" text-decoration="none" x="125" y="273">it will allocate whole node( i.e not shared)</text><text fill="#000000" stroke="none" font-family="Arial" font-size="13px" font-style="normal" font-weight="normal" text-decoration="none" x="125" y="286">*/</text></g></g><g transform="translate(-30,-30) scale(1,1)"><path fill="#ffffff" stroke="none" d="M 124 348 L 364 348 L 374 358 L 374 379 L 124 379 L 124 348"></path></g><g transform="translate(-30,-30) scale(1,1)"><path fill="none" stroke="#000000" d="M 124 348 L 364 348 L 374 358 L 374 379 L 124 379 L 124 348 L 124 348" stroke-miterlimit="10"></path></g><g transform="translate(-30,-30) scale(1,1)"><path fill="none" stroke="#000000" d="M 364 348 L 364 358 L 374 358 L 364 348" stroke-miterlimit="10"></path></g><g transform="translate(-30,-30) scale(1,1)"><g><path fill="none" stroke="none"></path><text fill="#000000" stroke="none" font-family="Arial" font-size="13px" font-style="normal" font-weight="normal" text-decoration="none" x="129" y="366">if(mode==SELECT_MODE_RUN_NOW)</text></g></g><g transform="translate(-30,-30) scale(1,1)"><path fill="#ffffff" stroke="none" d="M 268 436 L 529 436 L 539 446 L 539 547 L 268 547 L 268 436"></path></g><g transform="translate(-30,-30) scale(1,1)"><path fill="none" stroke="#000000" d="M 268 436 L 529 436 L 539 446 L 539 547 L 268 547 L 268 436 L 268 436" stroke-miterlimit="10"></path></g><g transform="translate(-30,-30) scale(1,1)"><path fill="none" stroke="#000000" d="M 529 436 L 529 446 L 539 446 L 529 436" stroke-miterlimit="10"></path></g><g transform="translate(-30,-30) scale(1,1)"><g><path fill="none" stroke="none"></path><text fill="#000000" stroke="none" font-family="Arial" font-size="13px" font-style="normal" font-weight="normal" text-decoration="none" x="273" y="454">if(job_ptr-&gt;part_ptr-&gt;cr_type) {</text></g></g><g transform="translate(-30,-30) scale(1,1)"><g><path fill="none" stroke="none"></path><text fill="#000000" stroke="none" font-family="Arial" font-size="13px" font-style="normal" font-weight="normal" text-decoration="none" x="273" y="469">tmp_cr_type = 0;</text></g></g><g transform="translate(-30,-30) scale(1,1)"><g><path fill="none" stroke="none"></path><text fill="#000000" stroke="none" font-family="Arial" font-size="13px" font-style="normal" font-weight="normal" text-decoration="none" x="273" y="484">tmp_cr_type | = job_ptr-&gt;part_ptr-&gt;cr_type;</text></g></g><g transform="translate(-30,-30) scale(1,1)"><g><path fill="none" stroke="none"></path><text fill="#000000" stroke="none" font-family="Arial" font-size="13px" font-style="normal" font-weight="normal" text-decoration="none" x="273" y="499">}</text></g></g><g transform="translate(-30,-30) scale(1,1)"><g><path fill="none" stroke="none"></path><text fill="#000000" stroke="none" font-family="Arial" font-size="13px" font-style="normal" font-weight="normal" text-decoration="none" x="273" y="514">/*tmp_cr_type is assigned as the same as</text><text fill="#000000" stroke="none" font-family="Arial" font-size="13px" font-style="normal" font-weight="normal" text-decoration="none" x="273" y="527">job_ptr -&gt;part_ptr -&gt;cr_type */</text></g></g><g transform="translate(-30,-30) scale(1,1)"><path fill="#ffffff" stroke="none" d="M 356 920 L 585 920 L 595 930 L 595 971 L 356 971 L 356 920"></path></g><g transform="translate(-30,-30) scale(1,1)"><path fill="none" stroke="#000000" d="M 356 920 L 585 920 L 595 930 L 595 971 L 356 971 L 356 920 L 356 920" stroke-miterlimit="10"></path></g><g transform="translate(-30,-30) scale(1,1)"><path fill="none" stroke="#000000" d="M 585 920 L 585 930 L 595 930 L 585 920" stroke-miterlimit="10"></path></g><g transform="translate(-30,-30) scale(1,1)"><g><path fill="none" stroke="none"></path><text fill="#000000" stroke="none" font-family="Arial" font-size="13px" font-style="normal" font-weight="normal" text-decoration="none" x="361" y="938">if( cpu_cnt!=NULL &amp;</text><text fill="#000000" stroke="none" font-family="Arial" font-size="13px" font-style="normal" font-weight="normal" text-decoration="none" x="361" y="951">job_ptr-&gt;best_switch &amp; test_only)</text></g></g><g transform="translate(-30,-30) scale(1,1)"><g><path fill="none" stroke="none"></path><text fill="#000000" stroke="none" font-family="Arial" font-size="13px" font-style="normal" font-weight="normal" text-decoration="none" x="361" y="966">return SLURM_SUCCESS;</text></g></g><g transform="translate(-30,-30) scale(1,1)"><path fill="#ffffff" stroke="none" d="M 464 656 L 685 656 L 695 666 L 695 692 L 464 692 L 464 656"></path></g><g transform="translate(-30,-30) scale(1,1)"><path fill="none" stroke="#000000" d="M 464 656 L 685 656 L 695 666 L 695 692 L 464 692 L 464 656 L 464 656" stroke-miterlimit="10"></path></g><g transform="translate(-30,-30) scale(1,1)"><path fill="none" stroke="#000000" d="M 685 656 L 685 666 L 695 666 L 685 656" stroke-miterlimit="10"></path></g><g transform="translate(-30,-30) scale(1,1)"><g><path fill="none" stroke="none"></path><text fill="#000000" stroke="none" font-family="Arial" font-size="13px" font-style="normal" font-weight="normal" text-decoration="none" x="469" y="674">remove allocated resources for the</text><text fill="#000000" stroke="none" font-family="Arial" font-size="13px" font-style="normal" font-weight="normal" text-decoration="none" x="469" y="687">Job,But Initially nothing is allocated</text></g></g><g transform="translate(-30,-30) scale(1,1)"><path fill="#ffffff" stroke="none" d="M 460 740 L 688 740 L 698 750 L 698 789 L 460 789 L 460 740"></path></g><g transform="translate(-30,-30) scale(1,1)"><path fill="none" stroke="#000000" d="M 460 740 L 688 740 L 698 750 L 698 789 L 460 789 L 460 740 L 460 740" stroke-miterlimit="10"></path></g><g transform="translate(-30,-30) scale(1,1)"><path fill="none" stroke="#000000" d="M 688 740 L 688 750 L 698 750 L 688 740" stroke-miterlimit="10"></path></g><g transform="translate(-30,-30) scale(1,1)"><g><path fill="none" stroke="none"></path><text fill="#000000" stroke="none" font-family="Arial" font-size="13px" font-style="normal" font-weight="normal" text-decoration="none" x="465" y="758">Node Level: Remove nodes do not</text><text fill="#000000" stroke="none" font-family="Arial" font-size="13px" font-style="normal" font-weight="normal" text-decoration="none" x="465" y="771">have enough memory and GRES</text><text fill="#000000" stroke="none" font-family="Arial" font-size="13px" font-style="normal" font-weight="normal" text-decoration="none" x="465" y="784">support </text></g></g><g transform="translate(-30,-30) scale(1,1)"><path fill="#ffffff" stroke="none" d="M 460 836 L 688 836 L 698 846 L 698 886 L 460 886 L 460 836"></path></g><g transform="translate(-30,-30) scale(1,1)"><path fill="none" stroke="#000000" d="M 460 836 L 688 836 L 698 846 L 698 886 L 460 886 L 460 836 L 460 836" stroke-miterlimit="10"></path></g><g transform="translate(-30,-30) scale(1,1)"><path fill="none" stroke="#000000" d="M 688 836 L 688 846 L 698 846 L 688 836" stroke-miterlimit="10"></path></g><g transform="translate(-30,-30) scale(1,1)"><g><path fill="none" stroke="none"></path><text fill="#000000" stroke="none" font-family="Arial" font-size="13px" font-style="normal" font-weight="normal" text-decoration="none" x="465" y="854">Create core_map from node_map,</text><text fill="#000000" stroke="none" font-family="Arial" font-size="13px" font-style="normal" font-weight="normal" text-decoration="none" x="465" y="867">Remove specialized cores in core_map</text><text fill="#000000" stroke="none" font-family="Arial" font-size="13px" font-style="normal" font-weight="normal" text-decoration="none" x="465" y="880">also.</text></g></g><g transform="translate(-30,-30) scale(1,1)"><path fill="#ffffff" stroke="none" d="M 620 984 L 789 984 L 799 994 L 799 1033 L 620 1033 L 620 984"></path></g><g transform="translate(-30,-30) scale(1,1)"><path fill="none" stroke="#000000" d="M 620 984 L 789 984 L 799 994 L 799 1033 L 620 1033 L 620 984 L 620 984" stroke-miterlimit="10"></path></g><g transform="translate(-30,-30) scale(1,1)"><path fill="none" stroke="#000000" d="M 789 984 L 789 994 L 799 994 L 789 984" stroke-miterlimit="10"></path></g><g transform="translate(-30,-30) scale(1,1)"><g><path fill="none" stroke="none"></path><text fill="#000000" stroke="none" font-family="Arial" font-size="13px" font-style="normal" font-weight="normal" text-decoration="none" x="625" y="1002">_select_nodes_ctd is</text><text fill="#000000" stroke="none" font-family="Arial" font-size="13px" font-style="normal" font-weight="normal" text-decoration="none" x="625" y="1015">_select_nodes operations in</text><text fill="#000000" stroke="none" font-family="Arial" font-size="13px" font-style="normal" font-weight="normal" text-decoration="none" x="625" y="1028">more detail</text></g></g><g transform="translate(-30,-30) scale(1,1)"><path fill="none" stroke="#000000" d="M 107 140 L 137 140 L 137 160 L 113 160" stroke-miterlimit="10"></path></g><g transform="translate(-30,-30) scale(1,1)"><path fill="#000000" stroke="none" d="M 123.16267485762415 155.790482243984 L 113 160 L 123.16267485762415 164.209517756016"></path></g><g transform="translate(-30,-30) scale(1,1)"><path fill="none" stroke="#000000" d="M 123.16267485762415 155.790482243984 L 113 160 L 123.16267485762415 164.209517756016 L 123.16267485762415 155.790482243984" stroke-miterlimit="10"></path></g><g transform="translate(-30,-30) scale(1,1)"><g><path fill="none" stroke="none"></path><text fill="#000000" stroke="none" font-family="Arial" font-size="13px" font-style="normal" font-weight="normal" text-decoration="none" x="88" y="156">1 : slurm_select_init</text></g></g><g transform="translate(-30,-30) scale(1,1)"><rect fill="#ffffff" stroke="none" x="100" y="160" width="13" height="28"></rect></g><g transform="translate(-30,-30) scale(1,1)"><path fill="none" stroke="#000000" d="M 100 160 L 113 160 L 113 188 L 100 188 L 100 160 Z Z" stroke-miterlimit="10"></path></g><g transform="translate(-30,-30) scale(1,1)"><path fill="none" stroke="#000000" d="M 113 172 L 236 172" stroke-miterlimit="10"></path></g><g transform="translate(-30,-30) scale(1,1)"><path fill="#000000" stroke="none" d="M 225.83732514237585 176.209517756016 L 236 172 L 225.83732514237585 167.790482243984"></path></g><g transform="translate(-30,-30) scale(1,1)"><path fill="none" stroke="#000000" d="M 225.83732514237585 176.209517756016 L 236 172 L 225.83732514237585 167.790482243984 L 225.83732514237585 176.209517756016" stroke-miterlimit="10"></path></g><g transform="translate(-30,-30) scale(1,1)"><g><path fill="none" stroke="none"></path><text fill="#000000" stroke="none" font-family="Arial" font-size="13px" font-style="normal" font-weight="normal" text-decoration="none" x="51" y="168">2 : ops(job_ptr,bitmap,preemptee_joblist)</text></g></g><g transform="translate(-30,-30) scale(1,1)"><rect fill="#ffffff" stroke="none" x="236" y="172" width="13" height="28"></rect></g><g transform="translate(-30,-30) scale(1,1)"><path fill="none" stroke="#000000" d="M 236 172 L 249 172 L 249 200 L 236 200 L 236 172 Z Z" stroke-miterlimit="10"></path></g><g transform="translate(-30,-30) scale(1,1)"><path fill="none" stroke="#000000" d="M 243 296 L 273 296 L 273 316 L 249 316" stroke-miterlimit="10"></path></g><g transform="translate(-30,-30) scale(1,1)"><path fill="#000000" stroke="none" d="M 259.16267485762415 311.790482243984 L 249 316 L 259.16267485762415 320.209517756016"></path></g><g transform="translate(-30,-30) scale(1,1)"><path fill="none" stroke="#000000" d="M 259.16267485762415 311.790482243984 L 249 316 L 259.16267485762415 320.209517756016 L 259.16267485762415 311.790482243984" stroke-miterlimit="10"></path></g><g transform="translate(-30,-30) scale(1,1)"><g><path fill="none" stroke="none"></path><text fill="#000000" stroke="none" font-family="Arial" font-size="13px" font-style="normal" font-weight="normal" text-decoration="none" x="148" y="312">3 : job_node_req = _get_job_node_req(job_ptr)</text></g></g><g transform="translate(-30,-30) scale(1,1)"><rect fill="#ffffff" stroke="none" x="236" y="316" width="13" height="28"></rect></g><g transform="translate(-30,-30) scale(1,1)"><path fill="none" stroke="#000000" d="M 236 316 L 249 316 L 249 344 L 236 344 L 236 316 Z Z" stroke-miterlimit="10"></path></g><g transform="translate(-30,-30) scale(1,1)"><path fill="none" stroke="#000000" d="M 243 401 L 378 401" stroke-miterlimit="10"></path></g><g transform="translate(-30,-30) scale(1,1)"><path fill="#000000" stroke="none" d="M 367.83732514237585 405.209517756016 L 378 401 L 367.83732514237585 396.790482243984"></path></g><g transform="translate(-30,-30) scale(1,1)"><path fill="none" stroke="#000000" d="M 367.83732514237585 405.209517756016 L 378 401 L 367.83732514237585 396.790482243984 L 367.83732514237585 405.209517756016" stroke-miterlimit="10"></path></g><g transform="translate(-30,-30) scale(1,1)"><g><path fill="none" stroke="none"></path><text fill="#000000" stroke="none" font-family="Arial" font-size="13px" font-style="normal" font-weight="normal" text-decoration="none" x="231" y="398">4 : _run_now(job_node_req)</text></g></g><g transform="translate(-30,-30) scale(1,1)"><rect fill="#ffffff" stroke="none" x="378" y="401" width="13" height="28"></rect></g><g transform="translate(-30,-30) scale(1,1)"><path fill="none" stroke="#000000" d="M 378 401 L 391 401 L 391 429 L 378 429 L 378 401 Z Z" stroke-miterlimit="10"></path></g><g transform="translate(-30,-30) scale(1,1)"><path fill="none" stroke="#000000" d="M 385 584 L 561 584" stroke-miterlimit="10"></path></g><g transform="translate(-30,-30) scale(1,1)"><path fill="#000000" stroke="none" d="M 550.8373251423759 588.209517756016 L 561 584 L 550.8373251423758 579.790482243984"></path></g><g transform="translate(-30,-30) scale(1,1)"><path fill="none" stroke="#000000" d="M 550.8373251423759 588.209517756016 L 561 584 L 550.8373251423758 579.790482243984 L 550.8373251423759 588.209517756016" stroke-miterlimit="10"></path></g><g transform="translate(-30,-30) scale(1,1)"><g><path fill="none" stroke="none"></path><text fill="#000000" stroke="none" font-family="Arial" font-size="13px" font-style="normal" font-weight="normal" text-decoration="none" x="350" y="576">5 : cr_job_test(tmp_cr_type,job_node_req)</text></g></g><g transform="translate(-30,-30) scale(1,1)"><rect fill="#ffffff" stroke="none" x="561" y="584" width="13" height="28"></rect></g><g transform="translate(-30,-30) scale(1,1)"><path fill="none" stroke="#000000" d="M 561 584 L 574 584 L 574 612 L 561 612 L 561 584 Z Z" stroke-miterlimit="10"></path></g><g transform="translate(-30,-30) scale(1,1)"><path fill="none" stroke="#000000" d="M 568 616 L 598 616 L 598 636 L 574 636" stroke-miterlimit="10"></path></g><g transform="translate(-30,-30) scale(1,1)"><path fill="#000000" stroke="none" d="M 584.1626748576241 631.790482243984 L 574 636 L 584.1626748576241 640.209517756016"></path></g><g transform="translate(-30,-30) scale(1,1)"><path fill="none" stroke="#000000" d="M 584.1626748576241 631.790482243984 L 574 636 L 584.1626748576241 640.209517756016 L 584.1626748576241 631.790482243984" stroke-miterlimit="10"></path></g><g transform="translate(-30,-30) scale(1,1)"><g><path fill="none" stroke="none"></path><text fill="#000000" stroke="none" font-family="Arial" font-size="13px" font-style="normal" font-weight="normal" text-decoration="none" x="485" y="632">6 : free_job_resources(*job_ptr.job_resrcs)</text></g></g><g transform="translate(-30,-30) scale(1,1)"><rect fill="#ffffff" stroke="none" x="561" y="636" width="13" height="28"></rect></g><g transform="translate(-30,-30) scale(1,1)"><path fill="none" stroke="#000000" d="M 561 636 L 574 636 L 574 664 L 561 664 L 561 636 Z Z" stroke-miterlimit="10"></path></g><g transform="translate(-30,-30) scale(1,1)"><path fill="none" stroke="#000000" d="M 568 696 L 598 696 L 598 716 L 574 716" stroke-miterlimit="10"></path></g><g transform="translate(-30,-30) scale(1,1)"><path fill="#000000" stroke="none" d="M 584.1626748576241 711.790482243984 L 574 716 L 584.1626748576241 720.209517756016"></path></g><g transform="translate(-30,-30) scale(1,1)"><path fill="none" stroke="#000000" d="M 584.1626748576241 711.790482243984 L 574 716 L 584.1626748576241 720.209517756016 L 584.1626748576241 711.790482243984" stroke-miterlimit="10"></path></g><g transform="translate(-30,-30) scale(1,1)"><g><path fill="none" stroke="none"></path><text fill="#000000" stroke="none" font-family="Arial" font-size="13px" font-style="normal" font-weight="normal" text-decoration="none" x="508" y="712">7 : _verify_node_state(param_NC)</text></g></g><g transform="translate(-30,-30) scale(1,1)"><rect fill="#ffffff" stroke="none" x="561" y="716" width="13" height="28"></rect></g><g transform="translate(-30,-30) scale(1,1)"><path fill="none" stroke="#000000" d="M 561 716 L 574 716 L 574 744 L 561 744 L 561 716 Z Z" stroke-miterlimit="10"></path></g><g transform="translate(-30,-30) scale(1,1)"><path fill="none" stroke="#000000" d="M 568 792 L 598 792 L 598 812 L 574 812" stroke-miterlimit="10"></path></g><g transform="translate(-30,-30) scale(1,1)"><path fill="#000000" stroke="none" d="M 584.1626748576241 807.790482243984 L 574 812 L 584.1626748576241 816.209517756016"></path></g><g transform="translate(-30,-30) scale(1,1)"><path fill="none" stroke="#000000" d="M 584.1626748576241 807.790482243984 L 574 812 L 584.1626748576241 816.209517756016 L 584.1626748576241 807.790482243984" stroke-miterlimit="10"></path></g><g transform="translate(-30,-30) scale(1,1)"><g><path fill="none" stroke="none"></path><text fill="#000000" stroke="none" font-family="Arial" font-size="13px" font-style="normal" font-weight="normal" text-decoration="none" x="427" y="808">8 : _make_core_bitmap(node_bitmap,job_ptr.details.corespec)</text></g></g><g transform="translate(-30,-30) scale(1,1)"><rect fill="#ffffff" stroke="none" x="561" y="812" width="13" height="28"></rect></g><g transform="translate(-30,-30) scale(1,1)"><path fill="none" stroke="#000000" d="M 561 812 L 574 812 L 574 840 L 561 840 L 561 812 Z Z" stroke-miterlimit="10"></path></g><g transform="translate(-30,-30) scale(1,1)"><path fill="none" stroke="#000000" d="M 568 904 L 751 904" stroke-miterlimit="10"></path></g><g transform="translate(-30,-30) scale(1,1)"><path fill="#000000" stroke="none" d="M 740.8373251423759 908.209517756016 L 751 904 L 740.8373251423758 899.790482243984"></path></g><g transform="translate(-30,-30) scale(1,1)"><path fill="none" stroke="#000000" d="M 740.8373251423759 908.209517756016 L 751 904 L 740.8373251423758 899.790482243984 L 740.8373251423759 908.209517756016" stroke-miterlimit="10"></path></g><g transform="translate(-30,-30) scale(1,1)"><g><path fill="none" stroke="none"></path><text fill="#000000" stroke="none" font-family="Arial" font-size="13px" font-style="normal" font-weight="normal" text-decoration="none" x="517" y="901">9 : _select_nodes(free_cores,prefer_alloc_nodes)</text></g></g><g transform="translate(-30,-30) scale(1,1)"><rect fill="#ffffff" stroke="none" x="751" y="904" width="13" height="68"></rect></g><g transform="translate(-30,-30) scale(1,1)"><path fill="none" stroke="#000000" d="M 751 904 L 764 904 L 764 972 L 751 972 L 751 904 Z Z" stroke-miterlimit="10"></path></g><g transform="translate(-30,-30) scale(1,1)"><path fill="none" stroke="#000000" d="M 751 967 L 568 967" stroke-miterlimit="10" stroke-dasharray="3"></path></g><g transform="translate(-30,-30) scale(1,1)"><path fill="none" stroke="#000000" d="M 578.1626748576241 962.790482243984 L 568 967 L 578.1626748576241 971.209517756016" stroke-miterlimit="10"></path></g><g transform="translate(-30,-30) scale(1,1)"><g><path fill="none" stroke="none"></path><text fill="#000000" stroke="none" font-family="Arial" font-size="13px" font-style="normal" font-weight="normal" text-decoration="none" x="583" y="963">10 : retun *cpu_count</text></g></g><g transform="translate(-30,-30) scale(1,1)"><path fill="none" stroke="#000000" d="M 568 996 L 385 996" stroke-miterlimit="10" stroke-dasharray="3"></path></g><g transform="translate(-30,-30) scale(1,1)"><path fill="none" stroke="#000000" d="M 395.16267485762415 991.790482243984 L 385 996 L 395.16267485762415 1000.209517756016" stroke-miterlimit="10"></path></g><g transform="translate(-30,-30) scale(1,1)"><g><path fill="none" stroke="none"></path><text fill="#000000" stroke="none" font-family="Arial" font-size="13px" font-style="normal" font-weight="normal" text-decoration="none" x="392" y="989">11 : return SLURM_SUCCESSS;</text></g></g><g transform="translate(-30,-30) scale(1,1)"><path fill="none" stroke="#000000" d="M 385 1004 L 243 1004" stroke-miterlimit="10" stroke-dasharray="3"></path></g><g transform="translate(-30,-30) scale(1,1)"><path fill="none" stroke="#000000" d="M 253.16267485762415 999.790482243984 L 243 1004 L 253.16267485762415 1008.209517756016" stroke-miterlimit="10"></path></g><g transform="translate(-30,-30) scale(1,1)"><g><path fill="none" stroke="none"></path><text fill="#000000" stroke="none" font-family="Arial" font-size="13px" font-style="normal" font-weight="normal" text-decoration="none" x="211" y="1000">12 : return SLURM_SUCCESS</text></g></g><g transform="translate(-30,-30) scale(1,1)"><path fill="none" stroke="#000000" d="M 243 1024 L 107 1024" stroke-miterlimit="10" stroke-dasharray="3"></path></g><g transform="translate(-30,-30) scale(1,1)"><path fill="none" stroke="#000000" d="M 117.16267485762415 1019.790482243984 L 107 1024 L 117.16267485762415 1028.2095177560159" stroke-miterlimit="10"></path></g><g transform="translate(-30,-30) scale(1,1)"><g><path fill="none" stroke="none"></path><text fill="#000000" stroke="none" font-family="Arial" font-size="13px" font-style="normal" font-weight="normal" text-decoration="none" x="81" y="1020">13 : return SLURM_SUCCESS</text></g></g></g></svg>